# xmcd
#
# Track frame offsets:
#	150
#	17307
#	35127
#	49515
#	66832
#	82047
#	97882
#	115217
#	132330
#	150652
#	168757
#	182705
#	202159
#	217660
#
# Disc length: 3168 seconds
#
# Revision: 11
# Processed by: cddbd v1.5.2PL0 Copyright (c) Steve Scherf et al.
# Submitted via: audiograbber 1.83.01
#
DISCID=b30c5e0e
DTITLE=Eric Gadd - The Right Way
DYEAR=1997
DGENRE=Soul
TTITLE0=Eric Gadd - My Personality
TTITLE1=Everybody's Buisness
TTITLE2=Summer Is Here
TTITLE3=The Right Way
TTITLE4=I Found Someone
TTITLE5=On My Way
TTITLE6=Till The Night Is Gone
TTITLE7=Romeo
TTITLE8=Keeper Of The Garden
TTITLE9=You're Mine
TTITLE10=Saint In The Parrish
TTITLE11=Come Over Here Sugar!
TTITLE12=Look At Me Now
TTITLE13=Someone Who Cares
EXTD=
EXTT0=
EXTT1=
EXTT2=
EXTT3=
EXTT4=
EXTT5=
EXTT6=
EXTT7=
EXTT8=
EXTT9=
EXTT10=
EXTT11=
EXTT12=
EXTT13=
PLAYORDER=
